Coordinates
version=1
nRows=29
nColumns=24
inDegrees=yes

Units are S.I. units (second, meters, Newtons, ...)
Angles are in degrees.

endheader
time	pelvis_tilt	pelvis_list	pelvis_rotation	pelvis_tx	pelvis_ty	pelvis_tz	hip_flexion_r	hip_adduction_r	hip_rotation_r	knee_angle_r	ankle_angle_r	subtalar_angle_r	mtp_angle_r	hip_flexion_l	hip_adduction_l	hip_rotation_l	knee_angle_l	ankle_angle_l	subtalar_angle_l	mtp_angle_l	lumbar_extension	lumbar_bending	lumbar_rotation
      1.47500000	     19.71220006	     -4.85413907	      3.69361067	     -0.01608817	      0.95568708	      0.31087039	    -27.37616614	     10.01144292	      1.45774175	     -5.70759230	     22.48737144	      6.61779788	     14.41560539	      9.09796106	     -5.87083934	     -7.72729801	    -33.09131192	     17.60767021	      5.65489940	     38.01135895	    -34.12966525	      7.94824619	      6.99363822
      1.48000000	     19.87892455	     -4.74391679	      3.64832199	     -0.01033859	      0.95533132	      0.31067688	    -28.05710710	      9.86812718	      1.41132671	     -5.55103263	     22.75596066	      6.87358853	     14.08068390	      8.58832397	     -5.59387934	     -8.11671840	    -30.70977204	     16.78894231	      5.97641521	     37.88567443	    -34.29004047	      7.79512603	      6.95475403
      1.48500000	     20.00274481	     -4.68683093	      3.53636634	     -0.00471665	      0.95499858	      0.31048052	    -28.66338058	      9.73795579	      1.53118317	     -5.43367310	     22.93101131	      6.99887130	     13.91589866	      8.10672505	     -5.35816037	     -8.53817880	    -28.31405798	     15.93821503	      6.08247162	     37.74215205	    -34.43574387	      7.65533858	      7.17087535
      1.49000000	     20.20540746	     -4.53968813	      3.45305036	      0.00120819	      0.95468988	      0.31026956	    -29.39870790	      9.53013567	      1.45544790	     -5.28090741	     23.11919082	      7.28626413	     13.74570334	      7.45190750	     -5.03612406	     -9.03841244	    -25.83164820	     15.11086475	      6.41447071	     37.64275959	    -34.63461387	      7.44748439	      7.27915886
      1.49500000	     20.30672336	     -4.48815898	      3.33275565	      0.00705294	      0.95419405	      0.30999122	    -29.96901855	      9.39260344	      1.50860625	     -5.22279397	     23.39043306	      7.56613120	     13.52089064	      6.91407615	     -4.78399045	     -9.50410215	    -23.40211671	     14.31416576	      6.75030098	     37.45006434	    -34.72202565	      7.31646673	      7.44529646
      1.50000000	     20.39779145	     -4.42872320	      3.26505893	      0.01272537	      0.95360164	      0.30963017	    -30.55410110	      9.26251744	      1.52286384	     -5.06179613	     23.51999726	      7.69831059	     13.47137837	      6.39999447	     -4.50080873	     -9.83782133	    -20.98769139	     13.57086150	      7.03352844	     37.32494204	    -34.81599041	      7.21655603	      7.55671603
      1.50500000	     20.51050414	     -4.39768025	      3.10500530	      0.01852343	      0.95304156	      0.30951366	    -31.12110353	      9.12539264	      1.59787577	     -5.01857370	     23.71883248	      7.96620356	     13.41625744	      5.87274986	     -4.28733310	    -10.39494000	    -18.70671763	     13.00511114	      7.52646549	     37.33349787	    -34.94224910	      7.07221746	      7.75153770
      1.51000000	     20.61932873	     -4.40096948	      2.95172949	      0.02427443	      0.95243740	      0.30940637	    -31.68956551	      9.02206736	      1.73551270	     -4.94922819	     23.89543459	      8.14229082	     13.37020621	      5.34893598	     -4.10232047	    -10.98642802	    -16.46838302	     12.47132708	      8.00106975	     37.41268290	    -35.05887460	      6.97028930	      7.96534003
      1.51500000	     20.60910685	     -4.48366393	      2.83874651	      0.03004314	      0.95165935	      0.30909872	    -32.07668846	      9.00172500	      1.81415854	     -4.97410864	     24.10879599	      8.39213973	     13.38221376	      4.96506949	     -3.96563310	    -11.38260497	    -14.30090063	     11.99919091	      8.32091242	     37.44276132	    -35.03810046	      6.98084696	      8.25031687
      1.52000000	     20.70797414	     -4.44605360	      2.83370352	      0.03601732	      0.95092110	      0.30868830	    -32.59835227	      8.92546268	      1.60379425	     -4.99943563	     24.33190992	      8.77290215	     13.40101122	      4.44949226	     -3.70298956	    -11.75400635	    -12.21080032	     11.65816483	      8.74790795	     37.51282053	    -35.10710372	      6.92185275	      8.23626756
      1.52500000	     20.75291751	     -4.41415824	      2.87651566	      0.04216994	      0.95008381	      0.30817264	    -33.10562824	      8.87646653	      1.32423608	     -4.95298256	     24.51784497	      9.20649912	     13.40549524	      4.01224560	     -3.42241758	    -11.99953049	    -10.24794946	     11.40377730	      9.06682379	     37.56639521	    -35.09163874	      6.89779049	      8.24598630
      1.53000000	     20.70076385	     -4.43248840	      2.94441026	      0.04821446	      0.94911107	      0.30749464	    -33.42929153	      8.88159069	      1.06957073	     -5.03819737	     24.70475974	      9.58293979	     13.45496170	      3.73060324	     -3.18907167	    -12.24168848	     -8.46287186	     11.17535528	      9.45120291	     37.67625187	    -34.98465369	      6.93724893	      8.30219721
      1.53500000	     20.61068496	     -4.46170914	      2.97048461	      0.05426890	      0.94806714	      0.30705229	    -33.70770741	      8.89798514	      0.86901020	     -5.13346926	     24.95431705	      9.86073628	     13.46727262	      3.57787070	     -2.99913465	    -12.68094036	     -6.98575561	     11.11686635	     10.05690673	     37.80058647	    -34.83576778	      6.96053804	      8.33487836
      1.54000000	     20.56564072	     -4.54851170	      3.01151049	      0.06013983	      0.94707590	      0.30659580	    -34.02212293	      8.97496766	      0.79487501	     -5.21569106	     25.14670462	     10.12303633	     13.48633202	      3.45638742	     -2.89419552	    -13.04365182	     -5.79539785	     11.21217702	     10.79257741	     37.84658075	    -34.75652545	      7.04659878	      8.40406558
      1.54500000	     20.48346860	     -4.64270749	      3.00945603	      0.06616163	      0.94608652	      0.30615704	    -34.31141876	      9.03643652	      0.85379555	     -5.29353288	     25.24391000	     10.24035322	     13.56428103	      3.39710156	     -2.80496625	    -13.48626218	     -4.81110116	     11.43845451	     11.63295859	     37.85176373	    -34.63227957	      7.11242175	      8.46148443
      1.55000000	     20.41284023	     -4.72462913	      3.11954430	      0.07224894	      0.94501060	      0.30564894	    -34.59498803	      9.15554902	      0.69983329	     -5.40049260	     25.30855885	     10.43022880	     13.74756886	      3.40678144	     -2.72540902	    -13.83092344	     -4.12875842	     11.73589938	     12.53815014	     37.83892691	    -34.49135831	      7.20915887	      8.46106011
      1.55500000	     20.41101958	     -4.72544133	      3.15857549	      0.07852192	      0.94403424	      0.30524764	    -35.01468961	      9.14990104	      0.58895029	     -5.41673046	     25.27027000	     10.46650594	     14.86602591	      3.38626289	     -2.60238365	    -14.39569949	     -3.76704328	     12.25976546	     13.78712869	     37.46868240	    -34.41325738	      7.19110575	      8.46144043
      1.56000000	     20.26160500	     -4.79908443	      3.24202568	      0.08474069	      0.94284504	      0.30486405	    -35.15547565	      9.24674953	      0.37257440	     -5.65040836	     25.40360128	     10.82460303	     15.07208335	      3.62628003	     -2.58169751	    -14.66910488	     -3.72417732	     12.72608022	     14.67985068	     37.48019783	    -34.18002673	      7.26843868	      8.34764398
      1.56500000	     20.18106370	     -4.86046019	      3.21900062	      0.09099640	      0.94182776	      0.30466710	    -35.34572427	      9.28105299	      0.21524174	     -5.96444844	     25.57894877	     11.06877407	     15.39185876	      3.81831712	     -2.59000091	    -14.99227947	     -3.94630945	     13.22284761	     15.47114526	     37.33891420	    -34.04477878	      7.25581081	      8.48489265
      1.57000000	     20.17611684	     -4.88028642	      3.16191759	      0.09731969	      0.94099840	      0.30451250	    -35.63088885	      9.23837382	      0.14666460	     -6.27345872	     25.72532204	     11.26747570	     15.65281193	      3.88601943	     -2.57277857	    -15.04331059	     -4.27147929	     13.66559218	     15.87367352	     37.25293905	    -33.96519491	      7.18277285	      8.51860312
      1.57500000	     20.13188954	     -4.88487346	      3.16168258	      0.10371873	      0.94009300	      0.30421847	    -35.86111721	      9.19313495	      0.01498558	     -6.59610067	     25.87895997	     11.60494810	     15.96628059	      4.04220945	     -2.54146650	    -14.81452319	     -4.83357082	     14.03980456	     15.93191036	     37.06776348	    -33.83114378	      7.12978806	      8.45830944
      1.58000000	     20.18001634	     -4.79241272	      3.13072145	      0.11015114	      0.93931004	      0.30397269	    -36.15629396	      9.04365012	     -0.22753220	     -7.02129495	     25.91846897	     11.94560016	     17.29694304	      4.08369993	     -2.42464859	    -14.57833108	     -5.52801710	     14.37210836	     15.85419124	     35.85322999	    -33.80637317	      6.96340346	      8.41547536
      1.58500000	     20.20317842	     -4.71093115	      3.04478184	      0.11665512	      0.93857753	      0.30378826	    -36.43861916	      8.86957398	     -0.40451352	     -7.42046599	     26.08098433	     12.37086418	     17.49518182	      4.15443030	     -2.34407761	    -14.38511233	     -6.35212124	     14.53065631	     15.89222293	     35.80456145	    -33.76507252	      6.78682169	      8.43133695
      1.59000000	     20.19141437	     -4.56691687	      2.92799384	      0.12322936	      0.93779573	      0.30341402	    -36.67145061	      8.58380621	     -0.54005333	     -7.82292266	     26.25457904	     12.83962324	     17.82112967	      4.25058147	     -2.17647923	    -14.02848626	     -7.29518522	     14.61407366	     15.56203629	     35.65455930	    -33.66034600	      6.55131565	      8.41064299
      1.59500000	     20.27684671	     -4.41058342	      2.87282287	      0.12979687	      0.93712383	      0.30302022	    -36.98521100	      8.33458301	     -0.80330818	     -8.29589561	     26.36368414	     13.33434333	     18.30176262	      4.20040833	     -1.98808080	    -13.45549898	     -8.20383017	     14.61993097	     15.02008002	     35.49013428	    -33.65779639	      6.32856097	      8.34532209
      1.60000000	     20.33177874	     -4.26307676	      2.82398607	      0.13636402	      0.93644675	      0.30277143	    -37.30801498	      8.11334870	     -0.90261758	     -8.67258341	     26.26646803	     13.59269018	     19.99937355	      4.21844711	     -1.83478020	    -12.98325642	     -9.27041525	     14.74775015	     14.62131316	     34.74811820	    -33.63981402	      6.09743000	      8.28177933
      1.60500000	     20.26573769	     -4.12052841	      2.64659228	      0.14313688	      0.93570019	      0.30268239	    -37.44009881	      7.81352862	     -0.91117519	     -9.19992074	     26.37136391	     13.89756177	     20.35239101	      4.28384675	     -1.66195355	    -12.49516174	    -10.28918473	     14.77036942	     13.97216529	     34.53273748	    -33.48550479	      5.79865843	      8.29209929
      1.61000000	     20.22983175	     -3.99384221	      2.52726147	      0.14989712	      0.93493689	      0.30251652	    -37.59960653	      7.56199737	     -0.99395335	     -9.71356310	     26.40063312	     14.18698635	     20.79199086	      4.27364781	     -1.49933482	    -11.72811260	    -11.25257557	     14.81705432	     13.21846957	     34.26630960	    -33.36439761	      5.55949435	      8.26375284
      1.61500000	     20.25676128	     -3.88885167	      2.38575694	      0.15664462	      0.93420634	      0.30249057	    -37.77597612	      7.30779813	     -1.16857233	    -10.34809528	     26.47518894	     14.69594823	     21.53502930	      4.22690151	     -1.33493452	    -11.21248963	    -12.21179168	     14.86133455	     12.36464955	     33.88049455	    -33.30765738	      5.31087048	      8.27659492
